<?xml version="1.0" standalone="no"?>
<!DOCTYPE svg PUBLIC "-//W3C//DTD SVG 20010904//EN"
 "http://www.w3.org/TR/2001/REC-SVG-20010904/DTD/svg10.dtd">
<svg version="1.0" xmlns="http://www.w3.org/2000/svg"
 width="488.000000pt" height="102.000000pt" viewBox="0 0 488.000000 102.000000"
 preserveAspectRatio="xMidYMid meet">

<g transform="translate(0.000000,102.000000) scale(0.100000,-0.100000)"
fill="#000000" stroke="none">
<path d="M2936 852 c-4 -7 -16 -12 -27 -12 -11 0 -17 -4 -14 -10 4 -6 -33 -10
-104 -10 -67 0 -111 -4 -111 -10 0 -6 68 -10 184 -10 113 0 187 4 191 10 4 6
-8 10 -30 10 -23 0 -38 5 -42 16 -3 8 -11 13 -19 10 -7 -3 -14 0 -17 7 -2 8
-5 8 -11 -1z"/>
<path d="M3355 848 c-9 -5 -23 -7 -32 -4 -8 4 -21 2 -27 -3 -6 -5 -22 -11 -35
-13 l-24 -3 27 -15 c22 -11 31 -12 46 -2 25 15 57 15 66 1 6 -11 -15 -31 -26
-24 -3 2 -5 -35 -5 -81 0 -46 2 -80 3 -74 2 5 11 10 19 10 13 0 13 -3 2 -17
-11 -15 -11 -16 1 -5 17 14 50 16 50 2 0 -6 45 -10 115 -10 70 0 115 4 115 10
0 6 7 10 15 10 8 0 15 7 15 15 0 8 5 15 10 15 17 0 12 106 -5 120 -12 10 -15
9 -15 -4 0 -9 -7 -19 -16 -23 -9 -3 -11 -9 -6 -12 14 -9 23 -74 13 -90 -7 -11
-36 -14 -132 -12 -67 1 -126 4 -130 7 -11 6 -7 47 6 57 7 6 6 10 -2 14 -8 3
-13 23 -13 50 0 36 3 44 15 39 21 -8 19 -1 -9 27 -18 18 -28 22 -41 15z"/>
<path d="M4460 846 c0 -13 -5 -16 -19 -11 -11 3 -22 1 -26 -5 -3 -5 -43 -10
-91 -10 -49 0 -84 -4 -84 -10 0 -14 377 -14 385 0 7 11 -42 33 -55 25 -5 -3
-11 1 -13 7 -4 10 -8 10 -15 -1 -7 -10 -14 -11 -31 -2 -11 7 -21 9 -21 5 0 -3
-7 -1 -15 6 -12 10 -15 9 -15 -4z"/>
<path d="M3720 816 c0 -10 9 -16 25 -16 14 0 25 5 25 10 0 6 -4 10 -9 10 -5 0
-16 3 -25 6 -11 4 -16 1 -16 -10z"/>
<path d="M235 810 c3 -5 15 -10 25 -10 10 0 22 5 25 10 4 6 -7 10 -25 10 -18
0 -29 -4 -25 -10z"/>
<path d="M690 810 c0 -5 11 -10 25 -10 14 0 25 5 25 10 0 6 -11 10 -25 10 -14
0 -25 -4 -25 -10z"/>
<path d="M1840 810 c0 -6 48 -10 124 -10 73 0 127 4 131 10 4 6 -40 10 -124
10 -81 0 -131 -4 -131 -10z"/>
<path d="M3960 810 c0 -5 11 -10 25 -10 14 0 25 5 25 10 0 6 -11 10 -25 10
-14 0 -25 -4 -25 -10z"/>
<path d="M4053 809 c-6 -6 -9 -19 -6 -28 3 -12 1 -11 -11 3 -9 11 -16 15 -16
9 0 -7 -10 -14 -22 -16 -16 -3 -15 -4 4 -2 16 1 30 -5 33 -13 3 -7 5 -106 5
-218 l0 -204 -33 0 c-18 0 -43 7 -55 16 -21 15 -22 20 -22 215 0 126 -4 199
-10 199 -11 0 -14 -74 -11 -327 1 -54 5 -92 9 -85 7 9 13 7 28 -9 17 -20 17
-22 2 -16 -10 3 -20 1 -24 -5 -4 -7 -3 -8 4 -4 7 4 12 2 12 -3 0 -7 26 -11 65
-11 l65 0 0 80 c0 45 4 80 10 80 6 0 6 9 0 26 -6 14 -10 86 -10 160 0 92 -3
134 -11 134 -8 0 -8 5 1 15 14 17 9 20 -7 4z"/>
<path d="M780 803 c0 -5 -2 -109 -3 -233 l-2 -225 -42 1 c-26 0 -40 -3 -36 -9
4 -6 0 -8 -9 -5 -9 4 -15 0 -15 -8 0 -11 16 -14 64 -14 l63 0 0 240 c0 162 -3
240 -11 240 -5 0 -7 5 -4 10 3 6 4 10 1 10 -3 0 -6 -3 -6 -7z"/>
<path d="M3055 762 l-38 -44 -182 4 c-110 2 -181 -1 -177 -6 3 -5 -2 -7 -11
-3 -12 4 -14 2 -10 -10 4 -9 2 -14 -3 -10 -12 7 -12 -38 -1 -49 4 -5 5 -1 1 9
-5 13 -2 16 10 11 9 -3 13 -11 9 -18 -3 -6 -2 -7 3 -3 5 5 9 16 9 25 0 15 17
17 138 20 135 3 138 2 132 -18 -4 -11 -2 -20 4 -20 6 0 11 9 11 20 0 17 7 20
49 20 46 0 52 3 84 43 43 53 50 73 27 73 -9 0 -34 -20 -55 -44z"/>
<path d="M3810 803 c0 -5 -2 -109 -3 -233 l-2 -225 -42 1 c-26 0 -40 -3 -36
-9 4 -6 0 -8 -9 -5 -9 4 -15 0 -15 -8 0 -12 14 -14 66 -12 l66 3 3 238 c2 210
1 237 -13 237 -9 0 -13 5 -10 10 3 6 4 10 1 10 -3 0 -6 -3 -6 -7z"/>
<path d="M4673 804 c10 -16 -18 -25 -33 -11 -10 9 -11 9 -5 -2 5 -8 -1 -21
-17 -35 -13 -11 -17 -16 -8 -11 13 9 13 8 0 -9 -12 -16 -25 -18 -88 -14 -40 3
-75 1 -78 -4 -3 -4 -6 -90 -7 -190 -2 -168 -3 -183 -20 -186 -27 -5 -69 7 -62
18 3 6 -1 7 -10 4 -14 -6 -14 -8 2 -21 16 -13 16 -14 1 -9 -9 2 -22 -3 -30
-12 -12 -15 -11 -16 5 -3 14 11 17 11 17 -1 0 -11 13 -13 63 -10 34 2 63 6 65
7 2 2 3 82 3 179 -1 121 2 177 10 182 7 4 42 9 80 12 63 4 70 7 97 41 42 53
43 57 25 72 -9 8 -14 9 -10 3z"/>
<path d="M1304 785 c8 -21 86 -135 92 -135 2 0 -11 24 -31 52 -36 54 -45 84
-22 73 6 -4 3 1 -7 9 -25 20 -40 20 -32 1z"/>
<path d="M315 703 c0 -46 2 -79 3 -73 2 5 10 10 18 10 11 0 14 17 14 74 0 65
-2 75 -17 73 -16 -1 -18 -12 -18 -84z"/>
<path d="M3210 647 c0 -126 -2 -146 -15 -141 -8 4 -15 2 -15 -4 0 -6 5 -12 12
-14 16 -6 20 -41 5 -50 -9 -5 -9 -10 0 -19 7 -7 8 -21 2 -42 -5 -20 -5 -35 1
-41 6 -6 10 -17 10 -25 0 -12 10 -16 38 -15 130 4 133 6 139 63 5 52 31 114
43 106 6 -3 10 -2 10 4 0 5 8 10 18 11 9 0 43 3 75 6 41 4 57 2 57 -6 0 -10 3
-10 15 0 10 9 15 9 15 1 0 -6 7 -11 16 -11 11 0 14 -5 10 -16 -4 -12 -2 -15 9
-10 12 4 15 -5 15 -52 0 -36 3 -52 9 -43 5 7 13 11 17 8 5 -3 7 21 6 54 -3 38
-8 57 -14 53 -7 -5 -9 2 -6 19 3 15 2 24 -2 22 -5 -3 -11 2 -14 11 -5 12 -2
15 11 10 10 -4 14 -4 11 0 -8 7 -327 9 -335 1 -3 -3 -6 -45 -7 -94 -1 -76 -3
-88 -19 -91 -27 -5 -69 7 -62 18 3 6 -1 7 -10 4 -14 -6 -14 -8 2 -21 16 -13
16 -14 1 -9 -10 3 -20 0 -24 -6 -4 -7 -3 -8 4 -4 7 4 12 2 12 -4 0 -7 -6 -10
-12 -7 -7 2 -11 15 -9 28 2 13 6 114 8 225 3 172 2 203 -12 214 -13 11 -15 -3
-15 -133z"/>
<path d="M188 658 c-4 -175 1 -300 12 -293 13 8 13 402 1 410 -6 3 -11 -44
-13 -117z"/>
<path d="M258 773 c6 -2 18 -2 25 0 6 3 1 5 -13 5 -14 0 -19 -2 -12 -5z"/>
<path d="M650 721 c0 -34 4 -61 10 -61 6 0 10 24 10 54 0 30 -4 58 -10 61 -6
4 -10 -17 -10 -54z"/>
<path d="M718 773 c6 -2 18 -2 25 0 6 3 1 5 -13 5 -14 0 -19 -2 -12 -5z"/>
<path d="M1923 773 c42 -2 112 -2 155 0 42 1 7 3 -78 3 -85 0 -120 -2 -77 -3z"/>
<path d="M2210 770 c0 -5 5 -10 11 -10 5 0 7 5 4 10 -3 6 -8 10 -11 10 -2 0
-4 -4 -4 -10z"/>
<path d="M2783 773 c48 -2 125 -2 170 0 45 1 6 3 -88 3 -93 0 -130 -2 -82 -3z"/>
<path d="M3029 753 l-24 -28 28 24 c25 23 32 31 24 31 -2 0 -14 -12 -28 -27z"/>
<path d="M3288 773 c6 -2 18 -2 25 0 6 3 1 5 -13 5 -14 0 -19 -2 -12 -5z"/>
<path d="M3748 773 c6 -2 18 -2 25 0 6 3 1 5 -13 5 -14 0 -19 -2 -12 -5z"/>
<path d="M4332 773 c48 -2 129 -2 180 0 51 1 12 3 -87 3 -99 0 -141 -2 -93 -3z"/>
<path d="M693 700 c0 -41 2 -58 4 -37 2 20 2 54 0 75 -2 20 -4 3 -4 -38z"/>
<path d="M764 560 c0 -118 2 -167 3 -108 2 60 2 156 0 216 -1 59 -3 10 -3
-108z"/>
<path d="M2318 726 c27 -45 43 -56 22 -16 -9 18 -9 24 0 30 9 6 7 11 -8 19
-38 20 -42 11 -14 -33z"/>
<path d="M3723 700 c0 -41 2 -58 4 -37 2 20 2 54 0 75 -2 20 -4 3 -4 -38z"/>
<path d="M3794 560 c0 -118 2 -167 3 -108 2 60 2 156 0 216 -1 59 -3 10 -3
-108z"/>
<path d="M1790 726 c0 -9 -5 -16 -11 -16 -5 0 -7 6 -4 13 4 6 0 4 -8 -6 -11
-13 -16 -14 -19 -6 -3 9 -6 8 -11 -3 -5 -15 16 -17 229 -18 160 0 234 3 229
10 -3 5 -14 10 -23 11 -16 0 -16 1 0 7 10 4 -66 5 -167 3 -137 -2 -189 0 -200
9 -12 10 -15 9 -15 -4z"/>
<path d="M4175 708 c-16 -16 -16 -18 -2 -18 8 0 23 -7 32 -16 11 -12 19 -13
28 -5 8 6 25 7 43 2 34 -9 43 -40 18 -66 -14 -13 -15 -19 -4 -25 9 -5 14 -40
16 -111 1 -57 6 -103 11 -102 4 2 9 63 11 136 2 114 0 138 -17 172 -10 22 -15
42 -10 45 4 3 -18 6 -50 5 -41 0 -63 -5 -76 -17z"/>
<path d="M2225 685 c0 -13 3 -21 8 -18 4 2 7 10 7 18 0 8 -3 16 -7 18 -5 3 -8
-5 -8 -18z"/>
<path d="M4126 698 c3 -5 10 -6 15 -3 13 9 11 12 -6 12 -8 0 -12 -4 -9 -9z"/>
<path d="M2370 660 c0 -40 -11 -70 -23 -63 -6 3 -7 1 -3 -6 10 -16 -33 -74
-50 -67 -7 3 -16 0 -20 -6 -5 -7 -2 -8 6 -3 9 5 11 4 6 -4 -4 -6 -15 -10 -24
-9 -12 2 -16 -3 -14 -17 5 -27 21 -43 30 -30 4 6 24 23 45 38 20 15 44 42 53
58 18 36 21 106 5 122 -8 8 -11 5 -11 -13z"/>
<path d="M2502 664 c10 -10 20 -16 22 -13 3 3 -5 11 -17 18 -21 13 -21 12 -5
-5z"/>
<path d="M1250 651 c15 -4 25 -14 25 -26 1 -20 76 -138 96 -150 28 -18 15 11
-41 94 -47 70 -67 91 -83 90 -20 -1 -20 -2 3 -8z"/>
<path d="M2352 640 c0 -14 2 -19 5 -12 2 6 2 18 0 25 -3 6 -5 1 -5 -13z"/>
<path d="M1216 638 c3 -5 -12 -25 -33 -45 -21 -20 -29 -30 -19 -22 19 14 19
13 2 -13 -17 -26 -35 -41 -20 -16 4 7 3 8 -5 4 -6 -4 -9 -11 -6 -15 2 -5 -3
-17 -11 -27 -9 -10 -12 -13 -8 -5 4 9 3 12 -4 7 -6 -4 -9 -13 -6 -20 3 -8 0
-17 -7 -22 -8 -5 -10 -3 -4 6 5 9 4 11 -4 6 -6 -4 -9 -12 -5 -17 3 -5 -12 -26
-33 -46 -21 -20 -29 -30 -18 -22 16 12 16 9 -4 -20 -22 -31 -27 -33 -67 -28
-26 2 -44 0 -44 -5 0 -6 -6 -8 -13 -5 -8 3 -14 -1 -14 -9 0 -12 15 -14 71 -12
l70 3 113 155 c62 85 112 158 113 161 0 4 -11 9 -25 11 -13 3 -22 1 -19 -4z"/>
<path d="M2710 640 c0 -6 40 -10 99 -10 56 0 103 4 106 10 4 6 -32 10 -99 10
-64 0 -106 -4 -106 -10z"/>
<path d="M1420 610 c12 -16 24 -30 26 -30 3 0 -4 14 -16 30 -12 17 -24 30 -26
30 -3 0 4 -13 16 -30z"/>
<path d="M390 620 c0 -6 45 -10 115 -10 70 0 115 4 115 10 0 6 -45 10 -115 10
-70 0 -115 -4 -115 -10z"/>
<path d="M2506 611 c-3 -4 2 -17 10 -27 9 -10 13 -13 9 -6 -8 15 19 16 47 1
11 -6 21 -9 24 -7 2 2 -16 14 -41 26 -24 12 -46 18 -49 13z"/>
<path d="M2753 603 c43 -2 110 -2 150 0 40 1 5 3 -78 3 -82 0 -115 -2 -72 -3z"/>
<path d="M3066 598 c19 -33 27 -39 35 -26 6 9 13 8 31 -7 23 -20 23 -20 8 0
-21 30 -42 45 -63 45 -12 0 -16 -4 -11 -12z"/>
<path d="M433 583 c42 -2 112 -2 155 0 42 1 7 3 -78 3 -85 0 -120 -2 -77 -3z"/>
<path d="M3463 583 c42 -2 112 -2 155 0 42 1 7 3 -78 3 -85 0 -120 -2 -77 -3z"/>
<path d="M1745 560 c4 -6 85 -10 211 -10 129 0 204 4 204 10 0 6 -77 10 -211
10 -137 0 -208 -3 -204 -10z"/>
<path d="M2618 563 c7 -3 16 -2 19 1 4 3 -2 6 -13 5 -11 0 -14 -3 -6 -6z"/>
<path d="M2765 550 c-159 -4 -176 -6 -146 -17 22 -8 89 -13 186 -13 138 0 155
-2 176 -20 24 -20 24 -20 5 -35 -11 -8 -15 -15 -9 -15 16 0 36 28 28 40 -3 5
-1 10 5 10 6 0 10 10 8 23 -2 18 -8 21 -33 19 -23 -2 -26 0 -15 8 12 8 12 9
-5 8 -11 -1 -101 -5 -200 -8z m245 -25 c0 -8 -7 -15 -15 -15 -9 0 -12 6 -9 15
4 8 10 15 15 15 5 0 9 -7 9 -15z"/>
<path d="M323 527 c-3 -5 -6 -48 -7 -95 -1 -75 -3 -87 -19 -90 -27 -5 -69 7
-62 18 3 6 -1 7 -10 4 -14 -6 -14 -8 2 -21 16 -13 16 -14 1 -9 -9 2 -22 -3
-30 -12 -12 -15 -11 -16 5 -3 11 9 17 10 17 2 0 -7 24 -11 65 -11 l65 0 0 95
0 95 146 0 c130 0 145 2 140 16 -5 12 -2 15 11 10 10 -4 14 -4 11 0 -10 9
-329 10 -335 1z"/>
<path d="M1500 495 c17 -25 33 -45 36 -45 3 0 -9 20 -26 45 -17 25 -33 45 -36
45 -3 0 9 -20 26 -45z"/>
<path d="M1700 446 c0 -47 4 -86 8 -86 5 0 17 -7 28 -16 15 -13 16 -15 2 -10
-12 3 -15 1 -11 -10 4 -11 20 -14 67 -12 l61 3 3 63 3 62 109 0 c67 0 110 4
110 10 0 6 -6 10 -12 10 -10 0 -10 2 -1 8 6 4 -42 7 -107 7 -73 0 -118 -4
-117 -10 1 -5 -2 -9 -8 -8 -6 1 -10 -23 -10 -55 0 -61 -10 -70 -58 -58 -20 5
-22 11 -21 83 l1 78 -4 -72 c-5 -98 -23 -93 -23 6 0 44 -4 83 -10 86 -6 4 -10
-25 -10 -79z"/>
<path d="M1862 523 c59 -2 158 -2 220 0 62 1 14 3 -107 3 -121 0 -172 -2 -113
-3z"/>
<path d="M3130 495 c0 -21 -9 -53 -21 -71 -20 -32 -37 -48 -24 -21 4 6 -3 1
-15 -13 -12 -14 -19 -18 -15 -10 5 12 4 12 -7 -1 -7 -9 -19 -14 -27 -11 -9 3
-11 0 -7 -7 6 -8 0 -10 -21 -6 -21 5 -24 4 -13 -4 11 -8 -41 -11 -186 -11
-142 0 -203 3 -212 12 -9 9 -12 8 -12 -5 0 -9 -5 -17 -11 -17 -5 0 -7 6 -4 13
4 6 0 4 -8 -6 -11 -13 -16 -14 -19 -6 -3 9 -6 8 -11 -3 -5 -15 14 -17 201 -18
135 0 209 -4 213 -11 4 -6 9 -7 12 -2 3 5 22 10 43 11 51 4 143 54 161 89 15
26 29 132 16 119 -3 -3 -12 -1 -20 5 -10 9 -13 4 -13 -26z"/>
<path d="M693 425 c0 -33 2 -45 4 -27 2 18 2 45 0 60 -2 15 -4 0 -4 -33z"/>
<path d="M3723 425 c0 -33 2 -45 4 -27 2 18 2 45 0 60 -2 15 -4 0 -4 -33z"/>
<path d="M658 464 c-13 -13 -9 -101 5 -107 9 -3 11 8 9 42 -4 66 -6 74 -14 65z"/>
<path d="M2150 411 c36 -33 69 -61 75 -61 10 0 14 -3 -75 69 l-65 53 65 -61z"/>
<path d="M2240 447 c0 -2 25 -24 56 -48 54 -41 55 -43 32 -52 -12 -4 -37 -7
-55 -5 -17 2 -29 0 -27 -4 3 -4 0 -8 -6 -8 -6 0 -8 -4 -5 -10 3 -5 44 -10 91
-10 49 0 84 4 84 10 0 6 -9 10 -19 10 -11 0 -23 5 -27 11 -5 8 1 10 20 7 31
-6 30 -6 -38 50 -27 22 -55 38 -62 35 -8 -3 -21 0 -29 7 -8 7 -15 10 -15 7z"/>
<path d="M1215 430 c3 -5 37 -10 76 -10 39 0 69 4 69 10 0 6 -32 10 -76 10
-47 0 -73 -4 -69 -10z"/>
<path d="M1568 396 c15 -24 29 -42 31 -40 4 4 -47 84 -54 84 -2 0 8 -20 23
-44z"/>
<path d="M2620 430 c0 -6 62 -10 165 -10 103 0 165 4 165 10 0 6 -62 10 -165
10 -103 0 -165 -4 -165 -10z"/>
<path d="M1263 393 c26 -2 67 -2 90 0 23 2 2 3 -48 3 -49 0 -68 -1 -42 -3z"/>
<path d="M2718 393 c50 -2 134 -2 185 0 50 1 9 3 -93 3 -102 0 -143 -2 -92 -3z"/>
<path d="M1170 347 c0 -9 -5 -17 -11 -17 -5 0 -7 6 -4 13 4 6 0 4 -8 -6 -11
-13 -16 -14 -19 -6 -3 9 -6 8 -11 -3 -5 -15 18 -17 264 -18 235 0 269 1 269
15 0 13 -30 15 -228 15 -164 0 -231 3 -240 12 -9 9 -12 8 -12 -5z"/>
<path d="M870 331 c0 -7 -5 -9 -12 -5 -7 5 -8 3 -3 -5 5 -9 10 -10 18 -2 6 6
8 14 4 18 -4 3 -7 1 -7 -6z"/>
</g>
</svg>
